HIERARCHY
ROOT SpineBase
{
  OFFSET 0.000000 0.000000 0.000000
  CHANNELS 6 Xposition Yposition Zposition Zrotation Xrotation Yrotation
  JOINT SpineMid
  {
    OFFSET 0.000000 26.576143 0.000000
    CHANNELS 3 Zrotation Xrotation Yrotation
    JOINT SpineShoulder
    {
      OFFSET -0.005338 19.818505 -0.571948
      CHANNELS 3 Zrotation Xrotation Yrotation
      JOINT Neck
      {
        OFFSET 0.009789 6.584696 -0.451253
        CHANNELS 3 Zrotation Xrotation Yrotation
        JOINT Head
        {
          OFFSET 3.638158 11.678827 -0.329171
          CHANNELS 3 Zrotation Xrotation Yrotation
          End Site
          {
            OFFSET 0 0 0
          }
        }
      }
      JOINT ShoulderLeft
      {
        OFFSET -11.426578 -1.835818 -7.238804
        CHANNELS 3 Zrotation Xrotation Yrotation
        JOINT ElbowLeft
        {
          OFFSET -5.152042 -20.351850 -2.889671
          CHANNELS 3 Zrotation Xrotation Yrotation
          JOINT WristLeft
          {
            OFFSET 2.082181 -20.453078 -5.236135
            CHANNELS 3 Zrotation Xrotation Yrotation
            JOINT HandLeft
            {
              OFFSET 0.789627 -6.910801 -0.673716
              CHANNELS 3 Zrotation Xrotation Yrotation
              JOINT HandTipLeft
              {
                OFFSET 0.467582 -6.588387 -0.523349
                CHANNELS 3 Zrotation Xrotation Yrotation
                End Site
                {
                  OFFSET 0 0 0
                }
              }
              JOINT ThumbLeft
              {
                OFFSET -2.422133 0.073163 -2.386835
                CHANNELS 3 Zrotation Xrotation Yrotation
                End Site
                {
                  OFFSET 0 0 0
                }
              }
            }
          }
        }
      }
      JOINT ShoulderRight
      {
        OFFSET 11.164980 -2.146579 2.954934
        CHANNELS 3 Zrotation Xrotation Yrotation
        JOINT ElbowRight
        {
          OFFSET 0.138693 -23.292318 6.519607
          CHANNELS 3 Zrotation Xrotation Yrotation
          JOINT WristRight
          {
            OFFSET 1.697775 -17.109302 -1.183799
            CHANNELS 3 Zrotation Xrotation Yrotation
            JOINT HandRight
            {
              OFFSET 0.903651 -7.324857 -0.948252
              CHANNELS 3 Zrotation Xrotation Yrotation
              JOINT HandTipRight
              {
                OFFSET 1.098230 -5.465633 2.014101
                CHANNELS 3 Zrotation Xrotation Yrotation
                End Site
                {
                  OFFSET 0 0 0
                }
              }
              JOINT ThumbRight
              {
                OFFSET -0.338701 -3.769375 -1.331388
                CHANNELS 3 Zrotation Xrotation Yrotation
                End Site
                {
                  OFFSET 0 0 0
                }
              }
            }
          }
        }
      }
    }
  }
  JOINT HipLeft
  {
    OFFSET -5.717680 1.175095 -5.199319
    CHANNELS 3 Zrotation Xrotation Yrotation
    JOINT KneeLeft
    {
      OFFSET -8.034156 -28.103075 -1.728616
      CHANNELS 3 Zrotation Xrotation Yrotation
      JOINT AnkleLeft
      {
        OFFSET -4.111935 -32.782883 6.842863
        CHANNELS 3 Zrotation Xrotation Yrotation
        JOINT FootLeft
        {
          OFFSET 3.614073 -4.319599 -6.847424
          CHANNELS 3 Zrotation Xrotation Yrotation
          End Site
          {
            OFFSET 0 0 0
          }
        }
      }
    }
  }
  JOINT HipRight
  {
    OFFSET 5.505351 0.628535 -0.774515
    CHANNELS 3 Zrotation Xrotation Yrotation
    JOINT KneeRight
    {
      OFFSET -4.185205 -28.890905 1.417142
      CHANNELS 3 Zrotation Xrotation Yrotation
      JOINT AnkleRight
      {
        OFFSET -3.779378 -33.809514 5.794102
        CHANNELS 3 Zrotation Xrotation Yrotation
        JOINT FootRight
        {
          OFFSET -1.539593 -3.955097 -9.223209
          CHANNELS 3 Zrotation Xrotation Yrotation
          End Site
          {
            OFFSET 0 0 0
          }
        }
      }
    }
  }
}
MOTION
Frames: 9
Frame Time: 0.033333
12.028553 66.254165 357.031073 -4.010728 -4.021803 -18.531974 0.168730 -0.120594 18.267987 0.226575 -0.095389 -0.141891 -27.124922 19.589620 0.938883 0.000000 0.000000 0.000000 5.118797 7.623572 -1.095216 3.100685 -8.968009 -0.223855 -9.577252 -14.620289 -0.262829 22.251262 22.614572 -6.407128 0.000000 0.000000 0.000000 0.000000 0.000000 0.000000 9.029909 -8.751818 1.698322 -21.789935 31.198855 8.525165 -9.563948 -6.822519 -1.377876 -0.908305 10.772603 -8.112080 0.000000 0.000000 0.000000 0.000000 0.000000 0.000000 2.850184 6.779538 17.761383 -0.815997 -1.521916 0.473888 -3.075143 -13.987572 -9.254606 0.000000 0.000000 0.000000 4.747647 1.747592 18.757195 -0.255070 5.504385 -0.695445 7.238352 -4.571682 -18.441778 0.000000 0.000000 0.000000
12.226597 66.342910 357.044703 -3.700357 -4.130743 -18.043605 0.017550 -0.242763 17.795192 0.374379 -0.188147 -0.134649 -27.164093 20.205237 1.004249 0.000000 0.000000 0.000000 3.112426 7.694175 -0.635801 5.586602 -8.486948 -0.600012 -9.757391 -11.000649 0.532554 21.492370 18.561736 -5.385444 0.000000 0.000000 0.000000 0.000000 0.000000 0.000000 8.745383 -8.486802 1.656028 -21.797251 31.192031 8.526700 -9.342914 -7.097272 -1.447452 -1.458367 9.323436 -8.884551 0.000000 0.000000 0.000000 0.000000 0.000000 0.000000 2.325468 6.793518 17.302406 -0.585504 -1.624951 0.491994 -1.832233 -12.691209 -9.800397 0.000000 0.000000 0.000000 3.853433 1.771250 18.265524 0.204316 5.143326 -0.642602 6.768589 -4.212599 -17.141659 0.000000 0.000000 0.000000
12.288668 66.371890 357.015386 -3.676887 -4.190698 -17.598459 0.083407 -0.331948 17.346222 0.438757 -0.233877 -0.131608 -26.796036 20.810638 0.992163 0.000000 0.000000 0.000000 0.930513 7.773826 -0.098977 7.786560 -8.121353 -0.901431 -8.823472 -10.400980 0.607633 20.684528 19.746436 -5.223514 0.000000 0.000000 0.000000 0.000000 0.000000 0.000000 8.614481 -8.279564 1.626250 -21.803809 31.194018 8.530271 -9.413406 -6.799907 -1.353940 0.246831 6.575153 -9.184678 0.000000 0.000000 0.000000 0.000000 0.000000 0.000000 2.212291 6.856949 16.854833 -0.474834 -1.691506 0.505660 -1.597644 -13.724554 -11.493507 0.000000 0.000000 0.000000 3.643586 1.919527 17.796617 0.217595 4.772465 -0.601404 7.303428 -5.196719 -18.102457 0.000000 0.000000 0.000000
12.233193 66.379532 356.929212 -3.809796 -4.159259 -17.271792 0.216546 -0.391844 17.007945 0.450312 -0.226931 -0.132074 -27.008528 21.196681 1.049827 0.000000 0.000000 0.000000 -1.005724 7.728441 0.407743 9.664078 -7.513166 -1.125606 -8.130823 -10.598227 0.503356 19.610144 20.522996 -4.939787 0.000000 0.000000 0.000000 0.000000 0.000000 0.000000 8.622455 -8.221881 1.619150 -21.807452 31.191292 8.531478 -9.392919 -6.809012 -1.354713 0.535580 8.999960 -8.065865 0.000000 0.000000 0.000000 0.000000 0.000000 0.000000 2.523759 6.821056 16.514444 -0.594745 -1.622450 0.491717 -2.600912 -18.424666 -16.256449 0.000000 0.000000 0.000000 3.979311 2.082801 17.441426 -0.149498 4.460982 -0.578820 1.492099 -9.892825 -0.977484 0.000000 0.000000 0.000000
12.112450 66.341408 356.804211 -4.104028 -4.076872 -17.181008 0.391451 -0.420032 16.896700 0.403609 -0.214127 -0.138683 -26.832202 21.350902 1.040768 0.000000 0.000000 0.000000 -3.212444 7.773460 0.985768 12.227815 -7.211301 -1.371746 -7.192322 -11.805745 0.337805 15.967231 27.693779 -4.142657 0.000000 0.000000 0.000000 0.000000 0.000000 0.000000 8.803065 -8.237895 1.625627 -21.810386 31.190042 8.533183 -9.508297 -6.769027 -1.353153 -0.406312 10.583679 -7.931647 0.000000 0.000000 0.000000 0.000000 0.000000 0.000000 3.110684 6.673120 16.424233 -0.809527 -1.401617 0.440049 -6.554681 -26.652610 -23.698923 0.000000 0.000000 0.000000 4.669431 2.291008 17.309972 -0.687707 4.179262 -0.563474 -0.972311 -14.610091 9.470057 0.000000 0.000000 0.000000
11.961252 66.275870 356.661293 -4.490125 -3.959305 -17.233462 0.517829 -0.444790 16.924940 0.283591 -0.191380 -0.152837 -25.954530 21.373567 0.914620 0.000000 0.000000 0.000000 -5.493034 7.686279 1.639834 14.747376 -6.985893 -1.611071 -6.838666 -11.168043 0.362820 13.262103 28.766679 -2.967819 0.000000 0.000000 0.000000 0.000000 0.000000 0.000000 9.196692 -8.314015 1.645425 -21.423105 30.534813 8.200673 -10.279738 -5.990415 -1.114760 -0.035321 10.043646 -8.261353 0.000000 0.000000 0.000000 0.000000 0.000000 0.000000 3.797416 6.480882 16.484999 -1.028985 -1.132415 0.376134 -15.190427 -36.725210 -33.955857 0.000000 0.000000 0.000000 5.570962 2.558198 17.309268 -1.565926 3.155447 -0.490592 -2.898533 -15.033206 17.332925 0.000000 0.000000 0.000000
11.803656 66.192401 356.514113 -4.902811 -3.828303 -17.222261 0.662530 -0.461553 16.889059 0.181694 -0.169236 -0.166676 -24.946832 21.235534 0.761455 0.000000 0.000000 0.000000 -6.211417 7.501253 1.916885 15.144517 -6.574301 -1.618981 -6.720610 -8.713463 0.481717 11.933819 23.991475 -2.039770 0.000000 0.000000 0.000000 0.000000 0.000000 0.000000 9.578967 -8.406001 1.667520 -21.582038 30.662817 8.304692 -10.136930 -5.732498 -1.021543 -1.515692 10.286603 -8.865212 0.000000 0.000000 0.000000 0.000000 0.000000 0.000000 4.493397 6.270302 16.487072 -1.219422 -0.861722 0.311390 -16.364832 -37.723033 -35.122479 0.000000 0.000000 0.000000 6.572630 2.783863 17.248280 -2.176390 3.101619 -0.496546 -2.576473 -16.520919 17.923443 0.000000 0.000000 0.000000
11.696339 66.102165 356.378175 -5.183519 -3.689144 -17.270245 0.792820 -0.447557 16.923766 0.182251 -0.137064 -0.171778 -23.867619 21.050442 0.524616 0.000000 0.000000 0.000000 -5.390818 7.265214 1.758635 13.441616 -6.065746 -1.383917 -6.757406 -6.425618 0.533148 9.637079 20.632662 -0.906025 0.000000 0.000000 0.000000 0.000000 0.000000 0.000000 9.734173 -8.550490 1.691032 -22.086530 31.464771 8.730251 -9.645219 -5.437699 -0.928496 -1.787124 10.028929 -8.999066 0.000000 0.000000 0.000000 0.000000 0.000000 0.000000 4.956198 5.987772 16.579945 -1.303612 -0.589962 0.241428 -23.244581 -42.645534 -42.261683 0.000000 0.000000 0.000000 7.351912 2.887428 17.270493 -2.670633 3.099261 -0.506795 -2.637483 -16.187257 17.750212 0.000000 0.000000 0.000000
11.671085 66.039818 356.289272 -5.282085 -3.583344 -17.197140 0.864426 -0.385173 16.850969 0.240217 -0.103627 -0.169165 -23.294706 20.525848 0.350794 0.000000 0.000000 0.000000 -4.063854 6.784956 1.468718 11.084924 -5.124926 -1.130747 -8.667541 -3.930784 0.821472 11.203404 13.552270 -0.981135 0.000000 0.000000 0.000000 0.000000 0.000000 0.000000 9.691629 -8.728777 1.713694 -22.816349 32.799877 9.401911 -8.601310 -5.698073 -0.990670 -2.651712 12.638224 -7.939044 0.000000 0.000000 0.000000 0.000000 0.000000 0.000000 5.121111 5.712777 16.563839 -1.949242 0.054139 -0.012185 -18.710137 -40.287682 -36.569441 0.000000 0.000000 0.000000 7.713383 2.925529 17.187173 -2.928044 3.053616 -0.506836 -1.034412 -14.222567 10.980043 0.000000 0.000000 0.000000
